<?xml version="1.0" encoding="iso-8859-1"?>
<!-- Uploaded to: SVG Repo, www.svgrepo.com, Generator: SVG Repo Mixer Tools -->
<svg height="800px" width="800px" version="1.1" id="Layer_1" xmlns="http://www.w3.org/2000/svg" xmlns:xlink="http://www.w3.org/1999/xlink" 
	 viewBox="0 0 512 512" xml:space="preserve">
<g transform="translate(0 1)">
	<path style="fill:#FCC309;" d="M332.8,485.4H179.2c0-18.773,15.36-34.133,34.133-34.133h85.333
		C317.44,451.267,332.8,466.627,332.8,485.4"/>
	<path style="fill:#FD9808;" d="M324.267,451.267h-25.6c18.773,0,34.133,15.36,34.133,34.133h25.6
		C358.4,466.627,343.04,451.267,324.267,451.267"/>
	<path style="fill:#FFFFFF;" d="M213.333,451.267h-25.6c-18.773,0-34.133,15.36-34.133,34.133h25.6
		C179.2,466.627,194.56,451.267,213.333,451.267"/>
	<polygon style="fill:#FCC309;" points="290.133,451.267 221.867,451.267 231.253,383 280.747,383 	"/>
	<polygon style="fill:#FFFFFF;" points="213.333,383 196.267,451.267 221.867,451.267 231.253,383 	"/>
	<polygon style="fill:#FD9808;" points="298.667,383 280.747,383 290.133,451.267 315.733,451.267 	"/>
	<g>
		<path style="fill:#FFDD09;" d="M349.867,442.733h-25.6c18.773,0,34.133,23.04,34.133,51.2h17.067c5.12,0,8.533-7.68,7.68-14.507
			C378.027,458.093,365.227,442.733,349.867,442.733"/>
		<polygon style="fill:#FFDD09;" points="324.267,383 306.347,383 315.733,451.267 341.333,451.267 		"/>
		<path style="fill:#FFDD09;" d="M477.867,314.733H34.133V54.467C34.133,38.253,47.787,24.6,64,24.6h384
			c16.213,0,29.867,13.653,29.867,29.867V314.733z"/>
	</g>
	<path style="fill:#FFFFFF;" d="M64,24.6H38.4c-16.213,0-29.867,13.653-29.867,29.867v260.267h25.6V54.467
		C34.133,38.253,47.787,24.6,64,24.6"/>
	<path style="fill:#FD9808;" d="M473.6,24.6H448c16.213,0,29.867,13.653,29.867,29.867v260.267h25.6V54.467
		C503.467,38.253,489.813,24.6,473.6,24.6"/>
	<path style="fill:#FCC309;" d="M448,383H64c-16.213,0-29.867-13.653-29.867-29.867v-38.4h443.733v38.4
		C477.867,369.347,464.213,383,448,383"/>
	<path style="fill:#FFFFFF;" d="M34.133,353.133v-38.4h-25.6v38.4C8.533,369.347,22.187,383,38.4,383H64
		C47.787,383,34.133,369.347,34.133,353.133"/>
	<path style="fill:#FD9808;" d="M477.867,314.733v38.4C477.867,369.347,464.213,383,448,383h25.6
		c16.213,0,29.867-13.653,29.867-29.867v-38.4H477.867z"/>
	<path d="M503.467,323.267H8.533c-5.12,0-8.533-3.413-8.533-8.533V280.6c0-5.12,3.413-8.533,8.533-8.533s8.533,3.413,8.533,8.533
		v25.6h477.867V54.467c0-11.947-9.387-21.333-21.333-21.333H38.4c-11.947,0-21.333,9.387-21.333,21.333v157.867
		c0,5.12-3.413,8.533-8.533,8.533S0,217.453,0,212.333V54.467c0-21.333,17.067-38.4,38.4-38.4h435.2c21.333,0,38.4,17.067,38.4,38.4
		v260.267C512,319.853,508.587,323.267,503.467,323.267z"/>
	<path d="M17.067,246.467c0-5.12-3.413-8.533-8.533-8.533S0,241.347,0,246.467C0,251.587,3.413,255,8.533,255
		S17.067,251.587,17.067,246.467"/>
	<g>
		<path style="fill:#1CD759;" d="M196.267,186.733c0,14.507-11.093,25.6-25.6,25.6c-14.507,0-25.6-11.093-25.6-25.6
			c0-14.507,11.093-25.6,25.6-25.6C185.173,161.133,196.267,172.227,196.267,186.733"/>
		<path style="fill:#1CD759;" d="M366.933,144.067c0,14.507-11.093,25.6-25.6,25.6c-14.507,0-25.6-11.093-25.6-25.6
			c0-14.507,11.093-25.6,25.6-25.6C355.84,118.467,366.933,129.56,366.933,144.067"/>
		<path style="fill:#1CD759;" d="M443.733,229.4c0,14.507-11.093,25.6-25.6,25.6c-14.507,0-25.6-11.093-25.6-25.6
			c0-14.507,11.093-25.6,25.6-25.6C432.64,203.8,443.733,214.893,443.733,229.4"/>
		<path style="fill:#1CD759;" d="M256,246.467c0,14.507-11.093,25.6-25.6,25.6c-14.507,0-25.6-11.093-25.6-25.6
			c0-14.507,11.093-25.6,25.6-25.6C244.907,220.867,256,231.96,256,246.467"/>
		<path style="fill:#1CD759;" d="M136.533,246.467c0,14.507-11.093,25.6-25.6,25.6s-25.6-11.093-25.6-25.6
			c0-14.507,11.093-25.6,25.6-25.6S136.533,231.96,136.533,246.467"/>
	</g>
	<path d="M145.067,75.8H51.2c-5.12,0-8.533-3.413-8.533-8.533s3.413-8.533,8.533-8.533h93.867c5.12,0,8.533,3.413,8.533,8.533
		S150.187,75.8,145.067,75.8z"/>
	<path d="M256,75.8h-76.8c-5.12,0-8.533-3.413-8.533-8.533s3.413-8.533,8.533-8.533H256c5.12,0,8.533,3.413,8.533,8.533
		S261.12,75.8,256,75.8z"/>
	<path d="M102.4,109.933H51.2c-5.12,0-8.533-3.413-8.533-8.533c0-5.12,3.413-8.533,8.533-8.533h51.2c5.12,0,8.533,3.413,8.533,8.533
		C110.933,106.52,107.52,109.933,102.4,109.933z"/>
	<path d="M213.333,109.933h-76.8c-5.12,0-8.533-3.413-8.533-8.533c0-5.12,3.413-8.533,8.533-8.533h76.8
		c5.12,0,8.533,3.413,8.533,8.533C221.867,106.52,218.453,109.933,213.333,109.933z"/>
	<path d="M256,109.933h-8.533c-5.12,0-8.533-3.413-8.533-8.533c0-5.12,3.413-8.533,8.533-8.533H256c5.12,0,8.533,3.413,8.533,8.533
		C264.533,106.52,261.12,109.933,256,109.933z"/>
	<path d="M358.4,493.933H153.6c-5.12,0-8.533-3.413-8.533-8.533c0-23.893,18.773-42.667,42.667-42.667h136.533
		c23.893,0,42.667,18.773,42.667,42.667C366.933,490.52,363.52,493.933,358.4,493.933z M163.84,476.867h185.173
		c-3.413-10.24-12.8-17.067-23.893-17.067H187.733C176.64,459.8,167.253,466.627,163.84,476.867z"/>
	<path d="M315.733,459.8H196.267c-2.56,0-5.12-0.853-6.827-3.413c-1.707-1.707-1.707-4.267-1.707-6.827l17.067-68.267
		c0.853-3.413,4.267-6.827,8.533-6.827h85.333c4.267,0,7.68,2.56,8.533,6.827l17.067,68.267c0.853,2.56,0,5.12-1.707,7.68
		C320.853,458.947,318.293,459.8,315.733,459.8z M207.36,442.733h97.28l-12.8-51.2h-71.68L207.36,442.733z"/>
	<path d="M473.6,391.533H38.4c-21.333,0-38.4-17.067-38.4-38.4v-38.4c0-5.12,3.413-8.533,8.533-8.533h494.933
		c5.12,0,8.533,3.413,8.533,8.533v38.4C512,374.467,494.933,391.533,473.6,391.533z M17.067,323.267v29.867
		c0,11.947,9.387,21.333,21.333,21.333h435.2c11.947,0,21.333-9.387,21.333-21.333v-29.867H17.067z"/>
	<path d="M170.667,220.867c-18.773,0-34.133-15.36-34.133-34.133s15.36-34.133,34.133-34.133s34.133,15.36,34.133,34.133
		S189.44,220.867,170.667,220.867z M170.667,169.667c-9.387,0-17.067,7.68-17.067,17.067c0,9.387,7.68,17.067,17.067,17.067
		s17.067-7.68,17.067-17.067C187.733,177.347,180.053,169.667,170.667,169.667z"/>
	<path d="M341.333,178.2c-18.773,0-34.133-15.36-34.133-34.133s15.36-34.133,34.133-34.133s34.133,15.36,34.133,34.133
		S360.107,178.2,341.333,178.2z M341.333,127c-9.387,0-17.067,7.68-17.067,17.067c0,9.387,7.68,17.067,17.067,17.067
		s17.067-7.68,17.067-17.067C358.4,134.68,350.72,127,341.333,127z"/>
	<path d="M426.667,263.533c-18.773,0-34.133-15.36-34.133-34.133s15.36-34.133,34.133-34.133S460.8,210.627,460.8,229.4
		S445.44,263.533,426.667,263.533z M426.667,212.333c-9.387,0-17.067,7.68-17.067,17.067s7.68,17.067,17.067,17.067
		s17.067-7.68,17.067-17.067S436.053,212.333,426.667,212.333z"/>
	<path d="M230.4,280.6c-18.773,0-34.133-15.36-34.133-34.133s15.36-34.133,34.133-34.133s34.133,15.36,34.133,34.133
		S249.173,280.6,230.4,280.6z M230.4,229.4c-9.387,0-17.067,7.68-17.067,17.067s7.68,17.067,17.067,17.067
		s17.067-7.68,17.067-17.067S239.787,229.4,230.4,229.4z"/>
	<path d="M110.933,280.6c-18.773,0-34.133-15.36-34.133-34.133s15.36-34.133,34.133-34.133s34.133,15.36,34.133,34.133
		S129.707,280.6,110.933,280.6z M110.933,229.4c-9.387,0-17.067,7.68-17.067,17.067s7.68,17.067,17.067,17.067
		S128,255.853,128,246.467S120.32,229.4,110.933,229.4z"/>
	<path d="M124.587,232.813c-2.56,0-4.267-0.853-5.973-2.56c-3.413-3.413-3.413-8.533,0-11.947l24.747-24.747
		c3.413-3.413,8.533-3.413,11.947,0s3.413,8.533,0,11.947l-24.747,24.747C128.853,231.96,126.293,232.813,124.587,232.813z"/>
	<path d="M216.747,232.813c-2.56,0-4.267-0.853-5.973-2.56l-24.747-24.747c-3.413-3.413-3.413-8.533,0-11.947s8.533-3.413,11.947,0
		l24.747,24.747c3.413,3.413,3.413,8.533,0,11.947C221.867,231.96,219.307,232.813,216.747,232.813z"/>
	<path d="M248.32,237.08c-2.56,0-4.267-0.853-5.973-2.56c-3.413-3.413-3.413-8.533,0-11.947l70.827-70.827
		c3.413-3.413,8.533-3.413,11.947,0c3.413,3.413,3.413,8.533,0,11.947l-70.827,70.827C252.587,236.227,250.88,237.08,248.32,237.08z
		"/>
	<path d="M413.013,215.747c-2.56,0-4.267-0.853-5.973-2.56l-50.347-50.347c-3.413-3.413-3.413-8.533,0-11.947
		c3.413-3.413,8.533-3.413,11.947,0l50.347,50.347c3.413,3.413,3.413,8.533,0,11.947
		C418.133,214.893,415.573,215.747,413.013,215.747z"/>
</g>
</svg>